PathFileType	4	(X/Y/Z)	58_1_17_p1_0-249_filt_butterworth.trc
DataRate	CameraRate	NumFrames	NumMarkers	Units	OrigDataRate	OrigDataStartFrame	OrigNumFrames
39.0	39.0	6	27	m	39.0	217	249
Frame#	Time	RHip			RKnee			RAnkle			RBigToe			RSmallToe			RHeel			LHip			LKnee			LAnkle			LBigToe			LSmallToe			LHeel			Neck			Head			Nose			RShoulder			RElbow			RWrist			RThumb			RIndex			RPinky			LShoulder			LElbow			LWrist			LThumb			LIndex			LPinky			
		X1	Y1	Z1	X2	Y2	Z2	X3	Y3	Z3	X4	Y4	Z4	X5	Y5	Z5	X6	Y6	Z6	X7	Y7	Z7	X8	Y8	Z8	X9	Y9	Z9	X10	Y10	Z10	X11	Y11	Z11	X12	Y12	Z12	X13	Y13	Z13	X14	Y14	Z14	X15	Y15	Z15	X16	Y16	Z16	X17	Y17	Z17	X18	Y18	Z18	X19	Y19	Z19	X20	Y20	Z20	X21	Y21	Z21	X22	Y22	Z22	X23	Y23	Z23	X24	Y24	Z24	X25	Y25	Z25	X26	Y26	Z26	X27	Y27	Z27	
217	5.564102564102564	0.33019780486577566	0.5345765134391207	0.9766623203357105	0.33283553053975956	0.6453320891390129	1.4643378870062733	0.3387634125589136	0.7572804936720691	1.8974799437433518	0.29322309151235937	0.5599944980275393	1.9624412539473215	0.36210915254249015	0.5711632904019868	1.9411190774452147	0.29946714549322845	0.8580260480894608	1.951998587391171	0.12934891412488725	0.513068788061498	0.9821331440676574	0.1316382873555585	0.6326012989857229	1.4674655136878036	0.1205194606873422	0.7313155038958752	1.8872088383111008	0.1253763622127778	0.5145063467203187	1.927400409698572	0.0705197971732267	0.5970732965109395	1.9506076534471668	0.1406665923844998	0.8135217165435477	1.9363056337543054	0.20310415575281376	0.43274049388524105	0.4237132822660554	0.21596242747453803	0.2811900963870605	0.19192809243266856	0.20717676328653234	0.2681180573748172	0.3416744552655626	0.35078656945728376	0.40894843361178457	0.506018658445161	0.41439512193199624	0.49720873345470296	0.7754855508759577	0.4117472439869895	0.43176462266214877	1.0316963264599277	0.34579690577851846	0.3965623436543649	1.1250760903970867	0.3618396558566488	0.39902640406681067	1.1565131917326135	0.39996995532984775	0.4785150250151461	1.154896327024981	0.05862742103665001	0.3952874381193063	0.5127082836787522	0.009971168512812217	0.5038985175232609	0.787026841780239	0.06281274006660637	0.4178419673620398	1.0146358799099398	0.12143621395031862	0.373586214843217	1.091671562791381	0.107717651757613	0.36405560967444317	1.123138033076841	0.08197872354054994	0.40008144386970834	1.1355287555196814
218	5.589743589743589	0.33024510984986716	0.5346388889137001	0.9753763402870168	0.3327893366068699	0.6452352113818373	1.4641339655257712	0.3375258417175413	0.7562644249523894	1.8976922829001488	0.2931171489505292	0.5589454017105714	1.9623471891405444	0.36188439317003573	0.5706193766384646	1.9409524125328284	0.29892333285582123	0.8587109337916738	1.9522674602304049	0.12955019478974034	0.5127613033779848	0.9804904870078845	0.13170847404082275	0.6324391362641306	1.4674321724351622	0.12282570251906844	0.7322170710903578	1.8874432411710922	0.12531237038425513	0.5145008282129057	1.9271935193176444	0.07053875369556355	0.5966690181092436	1.950384662047124	0.14155919548011314	0.8132913441433353	1.9362661067602724	0.20316022986536852	0.4326182983121244	0.4237818546757251	0.2160473435486926	0.28181888560139007	0.19362167980449585	0.2055545948784822	0.26804650458027385	0.3417425561705366	0.3517537280020011	0.40507672745176304	0.5060996297135253	0.4142224046317682	0.4976873140064829	0.7753789106643906	0.408688900723799	0.427643936380929	1.030998603151041	0.3440323729052258	0.3931620380927809	1.1244854448022799	0.3572575211558864	0.3890972145553689	1.1523488122100407	0.3961153071224231	0.4748417636135585	1.1546689628332092	0.05861823337507466	0.3954513761234875	0.514442434835338	0.010020788579741159	0.5040694348819253	0.7870061127767001	0.06307085942583199	0.41796910812076926	1.0145352943809218	0.12280127400125013	0.3745099696718286	1.0914600145345705	0.1084836724089791	0.3641639172497644	1.1232531394802114	0.08362246616516698	0.39681550556558975	1.135608141031112
219	5.615384615384615	0.33011963087069396	0.5352660957546718	0.9754108564058257	0.3328032221919118	0.6451511642373076	1.464162292181483	0.33531389957056756	0.7607658054499535	1.8995988178517695	0.29311566786892146	0.5591899851412108	1.9622632284546113	0.3619639872874666	0.5712966120892116	1.9411383379768394	0.2989404573917644	0.858692851828101	1.9523193659281155	0.1296874140222948	0.5125458094269936	0.9796193229133849	0.13162669438095323	0.6325432141447573	1.4673044076852646	0.1243862713365402	0.7327363782991021	1.8875764614416966	0.12530417718724582	0.5144622364579421	1.927149182196605	0.07061607406317796	0.5964832717266946	1.9503240481447954	0.14173636161573233	0.8147367512776795	1.9358921677570806	0.20318235214074218	0.4325873056348847	0.4238489366986399	0.2161576407872022	0.282730936494956	0.196565608666091	0.20457763289825887	0.2677534886500145	0.3427743011465124	0.35348194366304375	0.39842646992045094	0.5062822333910959	0.4140042606420712	0.4969221341079517	0.7752880739292745	0.4059441343774929	0.42742424308311844	1.0307805224473217	0.3409120120765612	0.3865481756833068	1.1231666806871905	0.35032413462659884	0.3850109583469582	1.1473696051774231	0.3910924562654455	0.47540320899537314	1.15594680637286	0.058631109048022045	0.3952327006091432	0.5153762569141699	0.008745713420986541	0.5071854867781648	0.7867836433170903	0.06358478983029521	0.41817740292852235	1.0144733196012794	0.1256804434120407	0.37541822640569456	1.091423825843492	0.109492773274538	0.36447901300212826	1.1232883427609703	0.08646839506716028	0.39063334010751094	1.13579979611488
220	5.641025641025641	0.3298396201315306	0.5353694549135889	0.9758524724840502	0.33284022047361905	0.6451660958085511	1.464239317215819	0.3342876970746867	0.7699859972537262	1.9031033079178759	0.2933251443765116	0.5605619304452104	1.9624888948063317	0.36204764886170643	0.5714170743021716	1.9411371216548703	0.2994714527758373	0.8584255192678115	1.952188784436368	0.12988490059862418	0.511795721633015	0.9789610690811915	0.13157389215224824	0.6328161356745394	1.467284567140923	0.12438171347247348	0.7327548018516632	1.8875859816539444	0.1253135891711302	0.5145138358149216	1.9272398034052787	0.07059777450351797	0.5967428514345112	1.950403257556976	0.14136179789939263	0.8154043197149833	1.9362714930285145	0.20298263206921519	0.43329352121885756	0.4238614860675637	0.21598946965814136	0.2831316236468763	0.19823823117766554	0.20411621240285838	0.26820713827575926	0.34424936431178854	0.35450017332964523	0.3946704665973985	0.5063993219778468	0.4140025964956485	0.4967753843433833	0.7753140691749144	0.40664281732700047	0.4299133188324751	1.0316447741879722	0.34026366880256037	0.38338806583929264	1.1212004974820378	0.3491890767158312	0.387651362837835	1.1441768723973145	0.3888464545330881	0.4765742158013939	1.1594821968954845	0.05869845918986655	0.3951447295507914	0.5144450245460626	0.006402104736947793	0.5129224515079795	0.7870212590595368	0.06260928016832115	0.4206240213125253	1.014568035304345	0.12618585346737932	0.3756828736304034	1.0911322338419647	0.10879719876371047	0.3664059263703169	1.1233117683417495	0.08728638658928542	0.3875171927792995	1.1356332681355352
221	5.666666666666667	0.3301064556019631	0.5348441395623562	0.9741985118209303	0.3328861383141289	0.64525017703694	1.4642177514355652	0.3346618260198485	0.7761977788305134	1.9055090112708355	0.29335575540500874	0.5607554160557799	1.962643979476969	0.3618554649145868	0.570591037974853	1.9407607772587405	0.2997802667871442	0.8584017118204457	1.9520380908418318	0.12992545492064012	0.5115409179735143	0.9788111835672008	0.1315705407686501	0.6328594556646652	1.4672814649121935	0.122807955476979	0.7322363868273508	1.8873522898363955	0.12536864062409558	0.5144609742421441	1.927332578733119	0.07059920383790665	0.5968713112730348	1.950447641051117	0.14139644136923968	0.8109645056470642	1.936517557613267	0.20296189936568526	0.43347855646810673	0.4238923516182761	0.21596879947027942	0.2832327182544338	0.19820934534720597	0.20417974105533138	0.26834146442380896	0.3451868833320076	0.3544919019720254	0.3948249952821891	0.5064062029360323	0.41528648554434966	0.4999781586321685	0.7753819814263138	0.40548736742434344	0.4311381488184818	1.0328825165223998	0.3352175365329063	0.38460269320218626	1.118081828472076	0.34775563488451294	0.38904409617018376	1.1417991782574362	0.3829117051145199	0.470036582342525	1.1628448997650571	0.05881873218235517	0.3953773309121303	0.512691558786134	0.004748324638945806	0.5173661325733603	0.78728857274442	0.06225859237638765	0.4216332703324734	1.0150985838582394	0.1275171220586479	0.37763874033507483	1.091363017491675	0.11036100852957684	0.366930951486231	1.1234756346054482	0.08663720983347634	0.3880385063727336	1.134281513346994
222	5.6923076923076925	0.3320994661146164	0.5345084697281146	0.9761770954785296	0.33306145986521846	0.6451719162032011	1.4641791772331347	0.3349135776437768	0.7759110372568307	1.905419822950285	0.29199358540068465	0.5563755418996705	1.960536769076214	0.3615485970986322	0.5703464404444413	1.9404140429500158	0.2997321337173935	0.8582725257390666	1.9518611559767942	0.12870219720041326	0.5156088228424593	0.9826712586283093	0.13174807930936938	0.6321972630147358	1.4671299188404405	0.12047406697424165	0.7313264412424892	1.886930623108697	0.1254123738704497	0.5143327668173636	1.9273550950367997	0.07062383181163615	0.5968306211190042	1.9504556313390562	0.1428615878307164	0.8027840834168315	1.9346481724937492	0.20418661240096253	0.42967477929801556	0.4241634745698211	0.21732061278178075	0.28377096655284206	0.1979376990134727	0.20655773818527695	0.26541292647309467	0.3464250733817608	0.35430939377951265	0.3953191557962039	0.5063925381993235	0.4174314396209913	0.5050435535896493	0.7754656021257902	0.3880658412394875	0.42015359979865985	1.0288250358829112	0.30908573598056943	0.38040718629474585	1.112051819729699	0.324115833921511	0.39309930598967524	1.139837343410449	0.3534550203715928	0.45516927149557007	1.1582093765990504	0.05890738344606526	0.3953423149560674	0.5117615083115006	0.00464940308741641	0.5178193187541591	0.7866291968704499	0.07123013714695146	0.4079441524485919	1.015513572791084	0.14276505642824774	0.38173800215388753	1.092586707901876	0.12581515518551578	0.35716479851193395	1.1236033052252845	0.09282633265814991	0.38813703264395266	1.133650426111915
